<svg xmlns="http://www.w3.org/2000/svg" viewBox="25.229 257.522 116.747 135.048" width="116.747" height="135.048">
  <path d="M56.6,323.1l9.8,5.6v-12.7l26.7-15.6l-9.6-6l-26.8,15.8V323.1z M98.8,303.8l-9.8,5.6l11.3,6.6l-0.2,30.1 l9.8-5.6v-30.3L98.8,303.8z M94.5,349.7v-10.9l-11.3,6.6l-26.7-15.6v10.9l26.8,15.6L94.5,349.7z" fill="#3B4550"/>
  <path d="M83.4,258.1l22.2,12.9l-58.4,34.6v29.8L26,323v-31.4L83.4,258.1z M141.3,358.1l-22.2,13.2v-66.1l-26.8-15.8 l22.5-13l26.5,15.4V358.1z M26,358.5v-24.5l57.4,32.8l26.4-15.8l0.2,25.4L84,391.8L26,358.5z" fill="#64BC4F"/>
</svg>