<svg fill="#000000" xmlns="http://www.w3.org/2000/svg"  viewBox="0 0 30 30" width="30px" height="30px"><path d="M 16.5 3 A 3.5 3.5 0 0 0 13.339844 8 L 4 8 C 2.895 8 2 8.895 2 10 L 2 20 C 2 21.105 2.895 22 4 22 L 14 22 C 15.105 22 16 21.105 16 20 L 16 10 C 16 9.987256 15.996331 9.9755777 15.996094 9.9628906 A 3.5 3.5 0 0 0 16.5 10 A 3.5 3.5 0 1 0 16.5 3 z M 24 5 A 2.5 2.5 0 0 0 24 10 A 2.5 2.5 0 0 0 24 5 z M 6 11 L 8.5 11 L 9.5 11 L 12 11 L 12 12 L 9.5 12 L 9.5 19 L 8.5 19 L 8.5 12 L 6 12 L 6 11 z M 18 12 L 18 20 C 18 22.21 16.21 24 14 24 L 11.019531 24 C 12.179531 25.8 14.2 27 16.5 27 C 20.09 27 23 24.09 23 20.5 L 23 14 C 23 12.9 22.1 12 21 12 L 18 12 z M 24.460938 12 C 24.800938 12.59 25 13.27 25 14 L 25 20.5 C 25 21.35 24.880625 22.169453 24.640625 22.939453 C 26.550625 22.639453 28 20.99 28 19 L 28 14 C 28 12.9 27.1 12 26 12 L 24.460938 12 z"/></svg>